<?xml version="1.0" encoding="UTF-8" standalone="no"?>
<svg
   xmlns:dc="http://purl.org/dc/elements/1.1/"
   xmlns:cc="http://creativecommons.org/ns#"
   xmlns:rdf="http://www.w3.org/1999/02/22-rdf-syntax-ns#"
   xmlns:svg="http://www.w3.org/2000/svg"
   xmlns="http://www.w3.org/2000/svg"
   xmlns:sodipodi="http://sodipodi.sourceforge.net/DTD/sodipodi-0.dtd"
   xmlns:inkscape="http://www.inkscape.org/namespaces/inkscape"
   width="774"
   height="236.91138"
   version="1.1"
   id="svg12"
   sodipodi:docname="mageia-logo-nav-3.svg"
   inkscape:version="0.92.1 r15371">
  <metadata
     id="metadata18">
    <rdf:RDF>
      <cc:Work
         rdf:about="">
        <dc:format>image/svg+xml</dc:format>
        <dc:type
           rdf:resource="http://purl.org/dc/dcmitype/StillImage" />
        <dc:title></dc:title>
      </cc:Work>
    </rdf:RDF>
  </metadata>
  <defs
     id="defs16" />
  <sodipodi:namedview
     pagecolor="#ffffff"
     bordercolor="#666666"
     borderopacity="1"
     objecttolerance="10"
     gridtolerance="10"
     guidetolerance="10"
     inkscape:pageopacity="0"
     inkscape:pageshadow="2"
     inkscape:window-width="640"
     inkscape:window-height="480"
     id="namedview14"
     showgrid="false"
     fit-margin-top="0"
     fit-margin-left="0"
     fit-margin-right="0"
     fit-margin-bottom="0"
     inkscape:zoom="0.46680942"
     inkscape:cx="387"
     inkscape:cy="117.91"
     inkscape:window-x="0"
     inkscape:window-y="0"
     inkscape:window-maximized="0"
     inkscape:current-layer="svg12" />
  <path
     d="m 666,223.91135 c -4.9706,0 -9,-4.02943 -9,-9.00003 0,-4.9705 4.0294,-8.99993 9,-8.99993 4.97048,0 9,4.02943 9,8.99993 0,4.9706 -4.02952,9.00003 -9,9.00003 z"
     id="path2"
     inkscape:connector-curvature="0"
     style="fill:#2397d4" />
  <g
     id="g6"
     style="fill:#2397d4"
     transform="translate(-80,-80.99863)">
    <path
       d="m 132.68252,163.75887 h -0.01 c -6.6729,0 -12.10712,-5.4267 -12.1142,-12.095 -0.01,-6.69052 5.42515,-12.1253 12.1041,-12.13237 6.683,0 12.1162,5.4267 12.12427,12.095 0,6.69053 -5.42513,12.1263 -12.1041,12.13338 z m 32.71756,-8.88273 c -6.23094,0 -11.30246,-5.06615 -11.30657,-11.29167 -0.01,-6.24198 5.06124,-11.31635 11.2963,-11.32148 6.23917,0 11.3107,5.0651 11.31684,11.29062 0,6.24197 -5.06224,11.31635 -11.29628,11.32252 h -0.01 z m -9.30658,-32.28548 c 0,5.5754 -4.51975,10.09516 -10.09515,10.09516 -5.5754,0 -10.09515,-4.51976 -10.09515,-10.09516 0,-5.5754 4.51975,-10.09515 10.09515,-10.09515 5.5754,0 10.09516,4.51976 10.09516,10.09516 z m 15.34464,-16.95986 c 0,5.12937 -4.15817,9.28755 -9.28754,9.28755 -5.12937,0 -9.28754,-4.15818 -9.28754,-9.28755 0,-5.12936 4.15817,-9.28754 9.28754,-9.28754 5.12937,0 9.28754,4.15818 9.28754,9.28754 z M 150.44022,89.07475 c 0,4.46033 -3.6158,8.07613 -8.07612,8.07613 -4.46032,0 -8.07613,-3.6158 -8.07613,-8.07613 0,-4.46032 3.6158,-8.07612 8.07613,-8.07612 4.46032,0 8.07612,3.6158 8.07612,8.07612 z"
       id="path4"
       inkscape:connector-curvature="0" />
  </g>
  <path
     d="m 221,110.91137 c -24,0 -42,18 -42,42 v 40 h 12 v -40 c 0,-18 12,-30 30,-30 18,0 30,12 30,30 v 40 h 12 v -40 c 0,-18 12,-30 30,-30 18,0 30,12 30,30 v 40 h 12 v -40 c 0,-24 -18,-42 -42,-42 -15.66528,0 -28.78428,7.6868 -36,19.6874 -7.21572,-12.0006 -20.33472,-19.6874 -36,-19.6874 z m 175,0 c -24,0 -42,18 -42,42 0,24 18,42 42,42 12,0 22.5,-4.5 30,-12 v 10 h 12 v -40 c 0,-24 -18,-42 -42,-42 z m 0,12 c 18,0 30,12 30,30 0,18 -12,30 -30,30 -18,0 -30,-12 -30,-30 0,-18 12,-30 30,-30 z m 204,-12 c -24,0 -42,18 -42,42 0,24 18,42 42,42 v -12 c -15.90756,0 -27.10606,-9.3968 -29.5,-24 h 71.125 c 0.25558,-1.9564 0.375,-3.9482 0.375,-6 0,-24 -18,-42 -42,-42 z m 0,12 c 15.90756,0 27.10606,9.397 29.5,24 h -59 c 2.39394,-14.603 13.59244,-24 29.5,-24 z m 60,-10 h 12 v 80 h -12 z m 72,-2 c -24,0 -42,18 -42,42 0,24 18,42 42,42 12,0 22.5,-4.5 30,-12 v 10 h 12 v -40 c 0,-24 -18,-42 -42,-42 z m 0,12 c 18,0 30,12 30,30 0,18 -12,30 -30,30 -18,0 -30,-12 -30,-30 0,-18 12,-30 30,-30 z m -234,-12 c -24,0 -42,18 -42,42 0,24 18,42 42,42 12,0 22.5,-4.5 30,-12 v 12 c 0,18 -12,30 -30,30 v 12 c 24,0 42,-18 42,-42 v -42 c 0,-24 -18,-42 -42,-42 z m 0,12 c 18,0 30,12 30,30 0,18 -12,30 -30,30 -18,0 -30,-12 -30,-30 0,-18 12,-30 30,-30 z"
     id="path8"
     inkscape:connector-curvature="0"
     style="fill:#262f45" />
  <path
     style="color:#000000;line-height:normal;font-family:Sans;-inkscape-font-specification:Sans;text-indent:0;text-align:start;text-transform:none;overflow:visible;fill:#262f45"
     d="M 18.9258,93.6735 C 8.4754,107.21897 0,122.45453 0,140.91142 c 0,40.00634 30.35843,73 68,73 37.64044,0 68,-32.9935 68,-73 0,-18.46054 -8.4889,-33.212 -19.53017,-47.2379 -4.14024,-4.34463 -10.11757,-3.69864 -14.469,-0.91856 C 89.26788,99.3435 82.39475,101.97589 68,101.91141 54.07798,101.84901 46.76333,99.57539 34.02967,92.63406 29.67825,89.97486 23.06604,89.32886 18.92581,93.67349 Z M 28,104.91142 c 13.19828,7.29754 24.9691,11 40,11 15.0436,0 26.79494,-3.7025 40,-11 7.2055,10.15985 14,22.7579 14,36 0,32.8013 -24.1753,59 -54,59 -29.82612,0 -55,-26.19854 -55,-59 0,-13.22462 7.7788,-25.8322 15,-36 z"
     overflow="visible"
     id="path10"
     inkscape:connector-curvature="0" />
</svg>
